<?xml version="1.0" encoding="UTF-8"?>
<!DOCTYPE svg PUBLIC "-//W3C//DTD SVG 1.1//EN" "http://www.w3.org/Graphics/SVG/1.1/DTD/svg11.dtd">
<svg xmlns="http://www.w3.org/2000/svg" version="1.1" width="800px" height="802px" style="shape-rendering:geometricPrecision; text-rendering:geometricPrecision; image-rendering:optimizeQuality; fill-rule:evenodd; clip-rule:evenodd" xmlns:xlink="http://www.w3.org/1999/xlink">
<g><path style="opacity:1" fill="#3e3e7c" d="M -0.5,-0.5 C 266.167,-0.5 532.833,-0.5 799.5,-0.5C 799.5,266.833 799.5,534.167 799.5,801.5C 532.833,801.5 266.167,801.5 -0.5,801.5C -0.5,534.167 -0.5,266.833 -0.5,-0.5 Z"/></g>
<g><path style="opacity:1" fill="#876ce6" d="M 531.5,145.5 C 546.837,145.333 562.17,145.5 577.5,146C 584.517,148.356 587.35,153.189 586,160.5C 585.021,163.625 583.187,166.125 580.5,168C 568.242,169.439 555.909,169.939 543.5,169.5C 526.49,220.363 508.99,271.03 491,321.5C 489.442,323.359 487.609,324.859 485.5,326C 422.167,326.667 358.833,326.667 295.5,326C 286.637,321.767 284.47,315.267 289,306.5C 290.41,305.213 291.91,304.046 293.5,303C 353.499,302.5 413.499,302.333 473.5,302.5C 490.04,252.713 506.873,203.046 524,153.5C 526.028,150.308 528.528,147.641 531.5,145.5 Z"/></g>
<g><path style="opacity:1" fill="#3baba5" d="M 495.5,147.5 C 427.833,147.333 360.166,147.5 292.5,148C 290.846,148.608 289.179,149.108 287.5,149.5C 288.347,148.034 289.68,147.2 291.5,147C 359.668,146.168 427.668,146.335 495.5,147.5 Z"/></g>
<g><path style="opacity:1" fill="#39e3bb" d="M 495.5,147.5 C 504.495,151.314 506.662,157.647 502,166.5C 500.362,168.734 498.195,170.067 495.5,170.5C 432.167,170.5 368.833,170.5 305.5,170.5C 305.5,181.833 305.5,193.167 305.5,204.5C 360.5,204.5 415.5,204.5 470.5,204.5C 480.282,209.2 482.116,216.2 476,225.5C 473.942,226.229 472.109,227.229 470.5,228.5C 415.5,228.5 360.5,228.5 305.5,228.5C 305.172,239.679 305.505,250.679 306.5,261.5C 353.835,261.333 401.168,261.5 448.5,262C 457.194,265.564 459.694,271.731 456,280.5C 454.629,282.041 453.129,283.375 451.5,284.5C 397.542,285.491 343.542,285.825 289.5,285.5C 285.391,283.887 282.891,280.887 282,276.5C 281.333,236.167 281.333,195.833 282,155.5C 283.161,152.815 284.994,150.815 287.5,149.5C 289.179,149.108 290.846,148.608 292.5,148C 360.166,147.5 427.833,147.333 495.5,147.5 Z"/></g>
<g><path style="opacity:1" fill="#3c7c94" d="M 495.5,170.5 C 432.669,171.499 369.669,171.832 306.5,171.5C 306.5,182.167 306.5,192.833 306.5,203.5C 361.336,203.168 416.003,203.501 470.5,204.5C 415.5,204.5 360.5,204.5 305.5,204.5C 305.5,193.167 305.5,181.833 305.5,170.5C 368.833,170.5 432.167,170.5 495.5,170.5 Z"/></g>
<g><path style="opacity:1" fill="#3c688c" d="M 470.5,228.5 C 416.003,229.499 361.336,229.832 306.5,229.5C 306.5,240.167 306.5,250.833 306.5,261.5C 305.505,250.679 305.172,239.679 305.5,228.5C 360.5,228.5 415.5,228.5 470.5,228.5 Z"/></g>
<g><path style="opacity:1" fill="#3b919b" d="M 451.5,284.5 C 451.389,285.117 451.056,285.617 450.5,286C 396.665,286.832 342.998,286.665 289.5,285.5C 343.542,285.825 397.542,285.491 451.5,284.5 Z"/></g>
<g><path style="opacity:1" fill="#866ce6" d="M 298.5,335.5 C 315.167,334.335 323,342.001 322,358.5C 316.892,369.803 308.392,373.636 296.5,370C 287.286,364.068 284.453,355.902 288,345.5C 290.738,341.26 294.238,337.926 298.5,335.5 Z"/></g>
<g><path style="opacity:1" fill="#866ce6" d="M 460.5,335.5 C 476.677,334.182 484.51,341.515 484,357.5C 478.321,371.253 468.821,374.753 455.5,368C 444.828,355.187 446.495,344.354 460.5,335.5 Z"/></g>
<g><path style="opacity:1" fill="#ececf2" d="M 253.5,398.5 C 272.039,395.618 287.039,401.451 298.5,416C 296.973,417.632 295.307,417.799 293.5,416.5C 281.972,402.938 267.639,398.771 250.5,404C 230.534,413.432 223.034,428.932 228,450.5C 232.91,464.721 242.744,473.554 257.5,477C 272.86,478.483 285.193,473.149 294.5,461C 296.201,460.655 297.534,461.322 298.5,463C 283.505,480.998 265.171,485.331 243.5,476C 221.873,460.998 216.706,441.498 228,417.5C 234.688,408.589 243.188,402.256 253.5,398.5 Z"/></g>
<g><path style="opacity:1" fill="#ebeaf1" d="M 570.5,398.5 C 582.427,397.1 593.76,398.933 604.5,404C 606.208,405.51 607.874,407.01 609.5,408.5C 608.672,409.415 607.672,410.081 606.5,410.5C 594.544,402.149 581.544,399.982 567.5,404C 555.922,409.664 551.755,418.831 555,431.5C 556.806,439.973 561.973,445.14 570.5,447C 575.167,447.333 579.833,447.667 584.5,448C 588.292,450.053 589.458,453.219 588,457.5C 583.521,461.243 578.354,462.409 572.5,461C 569.475,460.867 566.808,459.867 564.5,458C 565.772,456.954 567.272,456.454 569,456.5C 573.48,457.432 577.98,457.599 582.5,457C 584.192,455.599 584.859,453.766 584.5,451.5C 560.628,453.124 549.128,442.124 550,418.5C 553.453,408.212 560.286,401.545 570.5,398.5 Z"/></g>
<g><path style="opacity:1" fill="#e8e7ef" d="M 303.5,401.5 C 304.833,401.5 306.167,401.5 307.5,401.5C 307.5,426.833 307.5,452.167 307.5,477.5C 306.167,477.5 304.833,477.5 303.5,477.5C 303.5,452.167 303.5,426.833 303.5,401.5 Z"/></g>
<g><path style="opacity:1" fill="#f2f2f6" d="M 310.5,401.5 C 311.833,401.5 313.167,401.5 314.5,401.5C 314.5,426.833 314.5,452.167 314.5,477.5C 313.167,477.5 311.833,477.5 310.5,477.5C 310.5,452.167 310.5,426.833 310.5,401.5 Z"/></g>
<g><path style="opacity:1" fill="#ededf3" d="M 317.5,401.5 C 318.833,401.5 320.167,401.5 321.5,401.5C 321.5,426.833 321.5,452.167 321.5,477.5C 320.167,477.5 318.833,477.5 317.5,477.5C 317.5,452.167 317.5,426.833 317.5,401.5 Z"/></g>
<g><path style="opacity:1" fill="#f2f1f6" d="M 327.5,430.5 C 337.319,431.494 347.319,431.827 357.5,431.5C 357.5,421.5 357.5,411.5 357.5,401.5C 358.5,401.5 359.5,401.5 360.5,401.5C 360.5,426.833 360.5,452.167 360.5,477.5C 359.167,477.5 357.833,477.5 356.5,477.5C 356.5,467.833 356.5,458.167 356.5,448.5C 347.014,447.506 337.348,447.173 327.5,447.5C 327.5,457.5 327.5,467.5 327.5,477.5C 326.167,477.5 324.833,477.5 323.5,477.5C 323.5,452.167 323.5,426.833 323.5,401.5C 324.833,401.5 326.167,401.5 327.5,401.5C 327.5,411.167 327.5,420.833 327.5,430.5 Z"/></g>
<g><path style="opacity:1" fill="#f0f0f5" d="M 363.5,401.5 C 364.833,401.5 366.167,401.5 367.5,401.5C 367.5,426.833 367.5,452.167 367.5,477.5C 366.167,477.5 364.833,477.5 363.5,477.5C 363.5,452.167 363.5,426.833 363.5,401.5 Z"/></g>
<g><path style="opacity:1" fill="#dcdce8" d="M 369.5,401.5 C 371.167,401.5 372.833,401.5 374.5,401.5C 374.5,426.833 374.5,452.167 374.5,477.5C 372.833,477.5 371.167,477.5 369.5,477.5C 369.5,452.167 369.5,426.833 369.5,401.5 Z"/></g>
<g><path style="opacity:1" fill="#f0f0f5" d="M 376.5,401.5 C 377.833,401.5 379.167,401.5 380.5,401.5C 380.5,426.833 380.5,452.167 380.5,477.5C 379.167,477.5 377.833,477.5 376.5,477.5C 376.5,452.167 376.5,426.833 376.5,401.5 Z"/></g>
<g><path style="opacity:1" fill="#ededf3" d="M 388.5,401.5 C 389.833,401.5 391.167,401.5 392.5,401.5C 392.333,417.503 392.5,433.503 393,449.5C 399.739,470.957 414.239,479.79 436.5,476C 450.96,471.872 459.46,462.372 462,447.5C 462.5,432.17 462.667,416.837 462.5,401.5C 463.833,401.5 465.167,401.5 466.5,401.5C 466.667,416.837 466.5,432.17 466,447.5C 461.959,468.622 449.126,479.622 427.5,480.5C 409.553,480.28 397.053,471.947 390,455.5C 388.6,437.537 388.1,419.537 388.5,401.5 Z"/></g>
<g><path style="opacity:1" fill="#eaeaf0" d="M 395.5,401.5 C 396.833,401.5 398.167,401.5 399.5,401.5C 399.333,417.503 399.5,433.503 400,449.5C 403.673,463.006 412.507,470.006 426.5,470.5C 439.791,470.615 448.958,464.615 454,452.5C 455.427,435.548 455.927,418.548 455.5,401.5C 456.833,401.5 458.167,401.5 459.5,401.5C 459.959,419.236 459.459,436.902 458,454.5C 450.227,469.805 437.727,476.305 420.5,474C 408.493,471.098 400.326,463.931 396,452.5C 395.5,435.503 395.333,418.503 395.5,401.5 Z"/></g>
<g><path style="opacity:1" fill="#e5e5ee" d="M 401.5,401.5 C 402.833,401.5 404.167,401.5 405.5,401.5C 405.045,417.904 405.545,434.237 407,450.5C 412.321,461.734 421.155,465.9 433.5,463C 440.181,460.987 445.014,456.82 448,450.5C 448.5,434.17 448.667,417.837 448.5,401.5C 450.167,401.5 451.833,401.5 453.5,401.5C 453.667,417.17 453.5,432.837 453,448.5C 447.377,463.567 436.543,469.734 420.5,467C 411.402,464.234 405.235,458.401 402,449.5C 401.5,433.503 401.333,417.503 401.5,401.5 Z"/></g>
<g><path style="opacity:1" fill="#eeeef3" d="M 408.5,401.5 C 409.833,401.5 411.167,401.5 412.5,401.5C 412.333,417.17 412.5,432.837 413,448.5C 418.78,457.793 426.613,459.96 436.5,455C 439.106,453.062 440.939,450.562 442,447.5C 442.5,432.17 442.667,416.837 442.5,401.5C 443.833,401.5 445.167,401.5 446.5,401.5C 446.667,416.837 446.5,432.17 446,447.5C 440.256,460.281 430.756,464.114 417.5,459C 413.612,456.778 410.779,453.612 409,449.5C 408.5,433.503 408.333,417.503 408.5,401.5 Z"/></g>
<g><path style="opacity:1" fill="#ebebf1" d="M 474.5,401.5 C 475.833,401.5 477.167,401.5 478.5,401.5C 478.5,426.833 478.5,452.167 478.5,477.5C 477.167,477.5 475.833,477.5 474.5,477.5C 474.5,452.167 474.5,426.833 474.5,401.5 Z"/></g>
<g><path style="opacity:1" fill="#ededf3" d="M 480.5,401.5 C 481.833,401.5 483.167,401.5 484.5,401.5C 484.5,426.833 484.5,452.167 484.5,477.5C 483.167,477.5 481.833,477.5 480.5,477.5C 480.5,452.167 480.5,426.833 480.5,401.5 Z"/></g>
<g><path style="opacity:1" fill="#f2f2f6" d="M 487.5,401.5 C 488.833,401.5 490.167,401.5 491.5,401.5C 491.5,426.833 491.5,452.167 491.5,477.5C 490.167,477.5 488.833,477.5 487.5,477.5C 487.5,452.167 487.5,426.833 487.5,401.5 Z"/></g>
<g><path style="opacity:1" fill="#e8e7ef" d="M 494.5,401.5 C 495.833,401.5 497.167,401.5 498.5,401.5C 498.5,426.833 498.5,452.167 498.5,477.5C 497.167,477.5 495.833,477.5 494.5,477.5C 494.5,452.167 494.5,426.833 494.5,401.5 Z"/></g>
<g><path style="opacity:1" fill="#e8e8f0" d="M 518.5,401.5 C 519.978,401.238 521.311,401.571 522.5,402.5C 516.342,414.649 510.342,426.815 504.5,439C 510.39,451.944 516.39,464.778 522.5,477.5C 520.856,477.714 519.356,477.38 518,476.5C 511.831,464.162 505.664,451.828 499.5,439.5C 505.828,426.843 512.162,414.176 518.5,401.5 Z"/></g>
<g><path style="opacity:1" fill="#e9e9f0" d="M 525.5,401.5 C 527.199,401.34 528.866,401.506 530.5,402C 524.174,414.318 517.841,426.651 511.5,439C 517.442,451.718 523.776,464.218 530.5,476.5C 528.833,477.833 527.167,477.833 525.5,476.5C 519.422,464.01 513.089,451.677 506.5,439.5C 512.875,426.749 519.209,414.082 525.5,401.5 Z"/></g>
<g><path style="opacity:1" fill="#eae9f0" d="M 533.5,401.5 C 534.978,401.238 536.311,401.571 537.5,402.5C 530.927,414.646 524.593,426.979 518.5,439.5C 525.089,451.677 531.422,464.01 537.5,476.5C 535.994,477.747 534.494,477.747 533,476.5C 526.815,464.13 520.649,451.797 514.5,439.5C 520.332,426.502 526.666,413.835 533.5,401.5 Z"/></g>
<g><path style="opacity:1" fill="#e7e7ef" d="M 540.5,401.5 C 542.199,401.34 543.866,401.506 545.5,402C 538.525,414.116 532.192,426.616 526.5,439.5C 532.688,452.041 539.021,464.541 545.5,477C 543.741,477.798 542.074,477.631 540.5,476.5C 534.358,464.078 528.025,451.745 521.5,439.5C 527.847,426.807 534.18,414.14 540.5,401.5 Z"/></g>
<g><path style="opacity:1" fill="#ebebf2" d="M 257.5,404.5 C 271.917,403.211 283.583,408.211 292.5,419.5C 291.652,421.283 290.319,421.783 288.5,421C 280.334,410.718 269.667,406.718 256.5,409C 234.397,418.032 227.897,433.532 237,455.5C 250.471,472.591 266.304,475.091 284.5,463C 285.833,461.333 287.167,459.667 288.5,458C 291.134,457.075 292.301,457.909 292,460.5C 278.392,475.727 262.559,478.56 244.5,469C 227.505,455.845 224.005,439.678 234,420.5C 239.845,412.14 247.678,406.807 257.5,404.5 Z"/></g>
<g><path style="opacity:1" fill="#ebebf1" d="M 573.5,404.5 C 584.962,403.121 595.295,405.788 604.5,412.5C 603.672,413.415 602.672,414.081 601.5,414.5C 590.119,407.782 578.453,406.949 566.5,412C 558.205,421.363 558.538,430.363 567.5,439C 574.5,440 581.5,441 588.5,442C 596.032,447.335 597.532,454.169 593,462.5C 591.048,464.894 588.548,466.394 585.5,467C 580.167,467.667 574.833,467.667 569.5,467C 565.791,466.312 562.457,464.812 559.5,462.5C 559.887,461.28 560.72,460.613 562,460.5C 569.567,463.398 577.4,464.232 585.5,463C 590.635,459.945 592.468,455.445 591,449.5C 589.833,448.333 588.667,447.167 587.5,446C 580.833,445 574.167,444 567.5,443C 556.633,436.708 553.467,427.542 558,415.5C 561.962,410.023 567.129,406.356 573.5,404.5 Z"/></g>
<g><path style="opacity:1" fill="#ececf2" d="M 256.5,411.5 C 269.202,409.619 279.535,413.619 287.5,423.5C 286.672,424.415 285.672,425.081 284.5,425.5C 275.328,415.219 264.328,412.719 251.5,418C 238.002,428.37 235.836,440.87 245,455.5C 253.053,463.506 262.553,465.673 273.5,462C 277.595,459.741 281.262,456.907 284.5,453.5C 286.283,454.348 286.783,455.681 286,457.5C 274.542,468.513 261.708,470.346 247.5,463C 235.246,453.268 232.08,441.102 238,426.5C 242.592,419.394 248.758,414.394 256.5,411.5 Z"/></g>
<g><path style="opacity:1" fill="#eaeaf1" d="M 572.5,411.5 C 578.176,411.334 583.843,411.501 589.5,412C 593.005,412.657 596.005,414.157 598.5,416.5C 598.113,417.72 597.28,418.387 596,418.5C 588.433,415.602 580.6,414.768 572.5,416C 570.714,416.785 569.214,417.951 568,419.5C 566.877,424.436 567.71,428.936 570.5,433C 576.436,434.139 582.436,434.805 588.5,435C 602.154,441.629 605.654,451.795 599,465.5C 591.198,473.765 581.698,476.599 570.5,474C 564.309,473.114 558.976,470.614 554.5,466.5C 554.887,465.28 555.72,464.613 557,464.5C 568.966,471.705 581.133,472.205 593.5,466C 599.082,457.41 598.749,449.077 592.5,441C 590.913,440.138 589.246,439.471 587.5,439C 582.833,438.667 578.167,438.333 573.5,438C 564.455,434.595 561.288,428.095 564,418.5C 566.441,415.546 569.275,413.213 572.5,411.5 Z"/></g>
<g><path style="opacity:1" fill="#e8e8ef" d="M 259.5,417.5 C 268.823,416.815 276.156,420.149 281.5,427.5C 280.758,428.287 279.925,428.953 279,429.5C 267.106,418.152 256.439,419.152 247,432.5C 244.06,446.312 249.394,454.646 263,457.5C 269.511,457.328 274.678,454.662 278.5,449.5C 279.672,449.919 280.672,450.585 281.5,451.5C 270.141,464.392 258.308,464.725 246,452.5C 237.655,435.859 242.155,424.193 259.5,417.5 Z"/></g>
<g><path style="opacity:1" fill="#ececf2" d="M 575.5,417.5 C 582.232,416.849 588.565,418.016 594.5,421C 593.127,421.875 591.627,422.375 590,422.5C 585.195,421.475 580.362,421.308 575.5,422C 573.717,423.067 573.217,424.567 574,426.5C 603.346,426.815 613.68,440.815 605,468.5C 600.79,474.695 594.956,478.528 587.5,480C 575.074,482.134 563.407,480.134 552.5,474C 551.313,472.981 550.313,471.814 549.5,470.5C 549.833,469.5 550.5,468.833 551.5,468.5C 564.502,477.667 578.502,479.5 593.5,474C 604.873,464.994 607.373,453.828 601,440.5C 598.795,437.96 596.295,435.793 593.5,434C 586.214,432.263 578.881,430.929 571.5,430C 567.937,424.161 569.27,419.994 575.5,417.5 Z"/></g>
<g><path style="opacity:1" fill="#b8b8ce" d="M 357.5,401.5 C 357.5,411.5 357.5,421.5 357.5,431.5C 347.319,431.827 337.319,431.494 327.5,430.5C 337.167,430.5 346.833,430.5 356.5,430.5C 356.173,420.652 356.506,410.986 357.5,401.5 Z"/></g>
<g><path style="opacity:1" fill="#3f3f7d" d="M 327.5,434.5 C 337.167,434.5 346.833,434.5 356.5,434.5C 356.5,435.5 356.5,436.5 356.5,437.5C 346.833,437.5 337.167,437.5 327.5,437.5C 327.5,436.5 327.5,435.5 327.5,434.5 Z"/></g>
<g><path style="opacity:1" fill="#3f3f7d" d="M 327.5,441.5 C 337.167,441.5 346.833,441.5 356.5,441.5C 356.5,442.5 356.5,443.5 356.5,444.5C 346.833,444.5 337.167,444.5 327.5,444.5C 327.5,443.5 327.5,442.5 327.5,441.5 Z"/></g>
<g><path style="opacity:1" fill="#7676a2" d="M 356.5,448.5 C 347.167,448.5 337.833,448.5 328.5,448.5C 328.827,458.348 328.494,468.014 327.5,477.5C 327.5,467.5 327.5,457.5 327.5,447.5C 337.348,447.173 347.014,447.506 356.5,448.5 Z"/></g>
<g><path style="opacity:1" fill="#f3f3f7" d="M 275.5,611.5 C 275.5,609.833 275.5,608.167 275.5,606.5C 287.678,606.828 299.678,606.495 311.5,605.5C 332.318,602.573 343.651,590.573 345.5,569.5C 345.172,563.347 343.172,557.847 339.5,553C 340.473,550.216 341.806,547.716 343.5,545.5C 345.039,542.135 345.706,538.469 345.5,534.5C 345.497,531.645 345.164,528.978 344.5,526.5C 340.063,513.231 331.063,504.398 317.5,500C 292.531,498.58 267.531,498.08 242.5,498.5C 242.5,536.167 242.5,573.833 242.5,611.5C 240.5,611.5 238.5,611.5 236.5,611.5C 236.5,572.167 236.5,532.833 236.5,493.5C 263.502,493.333 290.502,493.5 317.5,494C 340.738,500.892 351.905,516.392 351,540.5C 349.551,544.85 347.718,549.016 345.5,553C 351.016,560.29 352.849,568.457 351,577.5C 346.63,595.947 335.13,607.114 316.5,611C 302.837,611.5 289.171,611.667 275.5,611.5 Z"/></g>
<g><path style="opacity:1" fill="#f0f0f5" d="M 360.5,493.5 C 362.5,493.5 364.5,493.5 366.5,493.5C 366.333,517.169 366.5,540.836 367,564.5C 372.694,593.521 390.361,609.188 420,611.5C 449.094,610.137 467.427,595.47 475,567.5C 475.5,542.836 475.667,518.169 475.5,493.5C 477.5,493.5 479.5,493.5 481.5,493.5C 481.667,517.836 481.5,542.169 481,566.5C 473.721,598.602 453.554,615.269 420.5,616.5C 387.562,614.725 367.729,597.725 361,565.5C 360.5,541.502 360.333,517.502 360.5,493.5 Z"/></g>
<g><path style="opacity:1" fill="#efeff4" d="M 371.5,493.5 C 373.5,493.5 375.5,493.5 377.5,493.5C 377.333,517.836 377.5,542.169 378,566.5C 383.733,588.402 397.9,599.735 420.5,600.5C 445.064,599.809 459.898,587.475 465,563.5C 465.5,540.169 465.667,516.836 465.5,493.5C 467.5,493.5 469.5,493.5 471.5,493.5C 471.667,517.836 471.5,542.169 471,566.5C 463.708,592.117 446.708,605.45 420,606.5C 397.315,605.337 381.649,594.337 373,573.5C 371.545,546.876 371.045,520.21 371.5,493.5 Z"/></g>
<g><path style="opacity:1" fill="#efeff4" d="M 381.5,493.5 C 383.5,493.5 385.5,493.5 387.5,493.5C 387.333,517.502 387.5,541.502 388,565.5C 393.072,581.547 404.072,589.88 421,590.5C 436.198,590.286 446.865,583.286 453,569.5C 454.462,544.218 454.962,518.885 454.5,493.5C 456.5,493.5 458.5,493.5 460.5,493.5C 460.667,518.502 460.5,543.502 460,568.5C 452.941,586.292 439.775,595.626 420.5,596.5C 402.191,595.44 389.691,586.44 383,569.5C 381.538,544.218 381.038,518.885 381.5,493.5 Z"/></g>
<g><path style="opacity:1" fill="#f1f1f5" d="M 391.5,493.5 C 393.5,493.5 395.5,493.5 397.5,493.5C 397.05,517.877 397.55,542.21 399,566.5C 407.572,580.426 419.405,583.926 434.5,577C 438.388,574.778 441.221,571.612 443,567.5C 444.461,542.885 444.961,518.219 444.5,493.5C 446.5,493.5 448.5,493.5 450.5,493.5C 450.667,517.836 450.5,542.169 450,566.5C 444.498,578.974 434.831,585.641 421,586.5C 408.154,585.756 398.821,579.756 393,568.5C 391.548,543.544 391.048,518.544 391.5,493.5 Z"/></g>
<g><path style="opacity:1" fill="#efeff4" d="M 489.5,494.5 C 491.364,493.207 493.364,493.207 495.5,494.5C 506.939,517.712 518.106,541.045 529,564.5C 540.423,541.319 551.59,517.986 562.5,494.5C 564.5,493.167 566.5,493.167 568.5,494.5C 556.667,519.5 544.833,544.5 533,569.5C 532.5,583.496 532.333,597.496 532.5,611.5C 530.5,611.5 528.5,611.5 526.5,611.5C 526.667,597.829 526.5,584.163 526,570.5C 514.075,544.985 501.908,519.651 489.5,494.5 Z"/></g>
<g><path style="opacity:1" fill="#efeef4" d="M 499.5,494.5 C 501.288,493.378 503.288,493.211 505.5,494C 514.795,512.757 523.961,531.59 533,550.5C 533.029,553.031 532.196,555.364 530.5,557.5C 520.424,536.347 510.09,515.347 499.5,494.5 Z"/></g>
<g><path style="opacity:1" fill="#eeeef3" d="M 509.5,494.5 C 511.693,493.203 514.027,493.203 516.5,494.5C 523.667,509.5 530.833,524.5 538,539.5C 538.335,542.18 537.501,544.513 535.5,546.5C 527.335,528.836 518.668,511.503 509.5,494.5 Z"/></g>
<g><path style="opacity:1" fill="#eeeef3" d="M 520.5,493.5 C 522.604,493.201 524.604,493.534 526.5,494.5C 532,505.5 537.5,516.5 543,527.5C 543.288,530.472 542.455,533.139 540.5,535.5C 533.827,521.487 527.16,507.487 520.5,493.5 Z"/></g>
<g><path style="opacity:1" fill="#f0f0f4" d="M 573.5,493.5 C 575.527,493.338 577.527,493.505 579.5,494C 567.205,519.424 555.038,544.924 543,570.5C 542.5,584.163 542.333,597.829 542.5,611.5C 540.5,611.5 538.5,611.5 536.5,611.5C 536.333,597.829 536.5,584.163 537,570.5C 549.181,544.807 561.347,519.14 573.5,493.5 Z"/></g>
<g><path style="opacity:1" fill="#efeff4" d="M 583.5,493.5 C 585.527,493.338 587.527,493.505 589.5,494C 577.205,519.424 565.038,544.924 553,570.5C 552.5,584.163 552.333,597.829 552.5,611.5C 550.5,611.5 548.5,611.5 546.5,611.5C 546.333,597.829 546.5,584.163 547,570.5C 559.181,544.807 571.347,519.14 583.5,493.5 Z"/></g>
<g><path style="opacity:1" fill="#f2f2f6" d="M 593.5,493.5 C 595.604,493.201 597.604,493.534 599.5,494.5C 587.317,520.197 575.15,545.864 563,571.5C 562.5,584.829 562.333,598.163 562.5,611.5C 560.833,611.5 559.167,611.5 557.5,611.5C 557.333,597.496 557.5,583.496 558,569.5C 570.118,544.265 581.952,518.932 593.5,493.5 Z"/></g>
<g><path style="opacity:1" fill="#f7f7f9" d="M 275.5,601.5 C 275.5,599.833 275.5,598.167 275.5,596.5C 287.345,596.828 299.012,596.495 310.5,595.5C 325.559,593.608 333.559,585.108 334.5,570C 335.196,562.917 332.863,557.084 327.5,552.5C 334.026,545.027 336.192,536.36 334,526.5C 329.321,517.079 321.821,511.413 311.5,509.5C 291.674,508.503 271.674,508.17 251.5,508.5C 251.5,542.833 251.5,577.167 251.5,611.5C 249.833,611.5 248.167,611.5 246.5,611.5C 246.5,575.5 246.5,539.5 246.5,503.5C 269.169,503.333 291.836,503.5 314.5,504C 334.143,509.453 342.643,522.286 340,542.5C 338.435,545.962 336.602,549.295 334.5,552.5C 344.127,568.276 342.127,582.443 328.5,595C 325.446,597.194 322.112,598.861 318.5,600C 304.217,601.411 289.884,601.911 275.5,601.5 Z"/></g>
<g><path style="opacity:1" fill="#b5b5cc" d="M 311.5,509.5 C 291.833,509.5 272.167,509.5 252.5,509.5C 252.832,543.671 252.498,577.671 251.5,611.5C 251.5,577.167 251.5,542.833 251.5,508.5C 271.674,508.17 291.674,508.503 311.5,509.5 Z"/></g>
<g><path style="opacity:1" fill="#cfcfdf" d="M 312.5,514.5 C 294.167,514.5 275.833,514.5 257.5,514.5C 257.5,546.833 257.5,579.167 257.5,611.5C 256.502,579.004 256.168,546.338 256.5,513.5C 275.341,513.17 294.007,513.503 312.5,514.5 Z"/></g>
<g><path style="opacity:1" fill="#f6f6f9" d="M 312.5,514.5 C 326.527,518.051 332.36,527.051 330,541.5C 328.135,546.39 324.968,550.223 320.5,553C 330.045,558.148 333.212,565.982 330,576.5C 326.857,585.141 320.69,589.808 311.5,590.5C 299.5,590.5 287.5,590.5 275.5,590.5C 275.5,588.833 275.5,587.167 275.5,585.5C 287.838,585.667 300.171,585.5 312.5,585C 322.666,581.842 326.5,575.009 324,564.5C 321.633,559.733 317.8,557.066 312.5,556.5C 300.345,555.505 288.011,555.171 275.5,555.5C 275.5,553.833 275.5,552.167 275.5,550.5C 288.907,550.944 302.24,550.444 315.5,549C 323.61,544.936 326.443,538.436 324,529.5C 321.359,524.856 317.525,521.689 312.5,520C 295.837,519.5 279.17,519.333 262.5,519.5C 262.5,550.167 262.5,580.833 262.5,611.5C 260.833,611.5 259.167,611.5 257.5,611.5C 257.5,579.167 257.5,546.833 257.5,514.5C 275.833,514.5 294.167,514.5 312.5,514.5 Z"/></g>
<g><path style="opacity:1" fill="#f3f2f6" d="M 309.5,545.5 C 298.167,545.5 286.833,545.5 275.5,545.5C 275.5,543.833 275.5,542.167 275.5,540.5C 286.838,540.667 298.172,540.5 309.5,540C 313.421,538.995 314.921,536.495 314,532.5C 313.097,531.299 311.931,530.465 310.5,530C 297.838,529.5 285.171,529.333 272.5,529.5C 272.5,556.833 272.5,584.167 272.5,611.5C 270.5,611.5 268.5,611.5 266.5,611.5C 266.5,582.5 266.5,553.5 266.5,524.5C 282.17,524.333 297.837,524.5 313.5,525C 321.191,529.5 322.525,535.5 317.5,543C 315.091,544.707 312.425,545.54 309.5,545.5 Z"/></g>
<g><path style="opacity:1" fill="#a9a8c5" d="M 344.5,526.5 C 345.164,528.978 345.497,531.645 345.5,534.5C 345.706,538.469 345.039,542.135 343.5,545.5C 344.32,539.203 344.653,532.869 344.5,526.5 Z"/></g>
<g><path style="opacity:1" fill="#8888ae" d="M 275.5,540.5 C 275.5,542.167 275.5,543.833 275.5,545.5C 286.833,545.5 298.167,545.5 309.5,545.5C 298.012,546.495 286.345,546.828 274.5,546.5C 274.205,544.265 274.539,542.265 275.5,540.5 Z"/></g>
<g><path style="opacity:1" fill="#b7b7ce" d="M 275.5,550.5 C 275.5,552.167 275.5,553.833 275.5,555.5C 288.011,555.171 300.345,555.505 312.5,556.5C 299.833,556.5 287.167,556.5 274.5,556.5C 274.205,554.265 274.539,552.265 275.5,550.5 Z"/></g>
<g><path style="opacity:1" fill="#fbfbfc" d="M 275.5,560.5 C 289.24,560.054 302.907,560.554 316.5,562C 321.833,567.667 321.833,573.333 316.5,579C 314.564,579.813 312.564,580.313 310.5,580.5C 298.833,580.5 287.167,580.5 275.5,580.5C 275.5,578.833 275.5,577.167 275.5,575.5C 287.171,575.667 298.838,575.5 310.5,575C 314.104,573.666 315.271,571.166 314,567.5C 313.329,566.748 312.496,566.414 311.5,566.5C 299.678,565.505 287.678,565.172 275.5,565.5C 275.5,563.833 275.5,562.167 275.5,560.5 Z"/></g>
<g><path style="opacity:1" fill="#8a8ab0" d="M 275.5,560.5 C 275.5,562.167 275.5,563.833 275.5,565.5C 287.678,565.172 299.678,565.505 311.5,566.5C 299.167,566.5 286.833,566.5 274.5,566.5C 274.205,564.265 274.539,562.265 275.5,560.5 Z"/></g>
<g><path style="opacity:1" fill="#8888ae" d="M 275.5,575.5 C 275.5,577.167 275.5,578.833 275.5,580.5C 287.167,580.5 298.833,580.5 310.5,580.5C 298.678,581.495 286.678,581.828 274.5,581.5C 274.205,579.265 274.539,577.265 275.5,575.5 Z"/></g>
<g><path style="opacity:1" fill="#b6b6cd" d="M 275.5,585.5 C 275.5,587.167 275.5,588.833 275.5,590.5C 287.5,590.5 299.5,590.5 311.5,590.5C 299.345,591.495 287.011,591.829 274.5,591.5C 274.205,589.265 274.539,587.265 275.5,585.5 Z"/></g>
<g><path style="opacity:1" fill="#b7b7cd" d="M 310.5,595.5 C 299.012,596.495 287.345,596.828 275.5,596.5C 275.5,598.167 275.5,599.833 275.5,601.5C 274.539,599.735 274.205,597.735 274.5,595.5C 286.5,595.5 298.5,595.5 310.5,595.5 Z"/></g>
<g><path style="opacity:1" fill="#8888ae" d="M 311.5,605.5 C 299.678,606.495 287.678,606.828 275.5,606.5C 275.5,608.167 275.5,609.833 275.5,611.5C 274.539,609.735 274.205,607.735 274.5,605.5C 286.833,605.5 299.167,605.5 311.5,605.5 Z"/></g>
<g><path style="opacity:1" fill="#d0d0df" d="M 206.5,648.5 C 212.105,647.908 217.439,648.741 222.5,651C 226.646,656.863 226.312,662.53 221.5,668C 216.264,669.339 210.93,669.839 205.5,669.5C 205.28,662.457 205.614,655.457 206.5,648.5 Z"/></g>
<g><path style="opacity:1" fill="#dfdee9" d="M 374.5,648.5 C 378.846,648.334 383.179,648.501 387.5,649C 390.325,653.068 389.992,656.901 386.5,660.5C 388.406,663.64 389.74,666.973 390.5,670.5C 389.448,670.649 388.448,670.483 387.5,670C 385.94,665.945 383.274,663.112 379.5,661.5C 379.5,664.167 379.5,666.833 379.5,669.5C 378.167,669.5 376.833,669.5 375.5,669.5C 375.72,662.457 375.386,655.457 374.5,648.5 Z"/></g>
<g><path style="opacity:1" fill="#d0d0df" d="M 270.5,648.5 C 271.833,648.5 273.167,648.5 274.5,648.5C 274.492,651.545 274.159,654.545 273.5,657.5C 272.5,657.5 271.5,657.5 270.5,657.5C 270.5,654.5 270.5,651.5 270.5,648.5 Z"/></g>
<g><path style="opacity:1" fill="#dedee8" d="M 276.5,648.5 C 282.167,648.5 287.833,648.5 293.5,648.5C 293.5,649.5 293.5,650.5 293.5,651.5C 291.167,651.5 288.833,651.5 286.5,651.5C 286.5,657.5 286.5,663.5 286.5,669.5C 285.167,669.5 283.833,669.5 282.5,669.5C 282.5,663.5 282.5,657.5 282.5,651.5C 280.5,651.5 278.5,651.5 276.5,651.5C 276.5,650.5 276.5,649.5 276.5,648.5 Z"/></g>
<g><path style="opacity:1" fill="#f5f5f8" d="M 368.5,649.5 C 365.813,649.336 363.146,649.503 360.5,650C 363.016,650.091 364.682,650.591 365.5,651.5C 363.833,651.5 362.167,651.5 360.5,651.5C 359.167,652.833 357.833,652.833 356.5,651.5C 356.5,650.5 356.5,649.5 356.5,648.5C 360.702,648.183 364.702,648.517 368.5,649.5 Z"/></g>
<g><path style="opacity:1" fill="#dedee8" d="M 573.5,648.5 C 579.167,648.5 584.833,648.5 590.5,648.5C 590.5,649.5 590.5,650.5 590.5,651.5C 588.167,651.5 585.833,651.5 583.5,651.5C 583.5,657.5 583.5,663.5 583.5,669.5C 582.167,669.5 580.833,669.5 579.5,669.5C 579.5,663.5 579.5,657.5 579.5,651.5C 577.5,651.5 575.5,651.5 573.5,651.5C 573.5,650.5 573.5,649.5 573.5,648.5 Z"/></g>
<g><path style="opacity:1" fill="#42427e" d="M 209.5,651.5 C 219.834,650.809 223.168,655.143 219.5,664.5C 216.388,666.184 213.054,666.85 209.5,666.5C 209.5,661.5 209.5,656.5 209.5,651.5 Z"/></g>
<g><path style="opacity:1" fill="#464681" d="M 378.5,651.5 C 383.931,650.094 386.265,652.094 385.5,657.5C 383.409,657.318 381.409,657.652 379.5,658.5C 378.526,656.257 378.192,653.924 378.5,651.5 Z"/></g>
<g><path style="opacity:1" fill="#d7d7e4" d="M 512.5,648.5 C 511.791,649.404 510.791,649.737 509.5,649.5C 508.986,651.512 508.82,653.512 509,655.5C 509.442,653.321 510.442,652.655 512,653.5C 514.817,657.6 515.65,661.6 514.5,665.5C 512.372,664.371 510.039,664.204 507.5,665C 505.845,666.444 505.178,668.278 505.5,670.5C 503.654,670.778 502.32,670.111 501.5,668.5C 503.68,662.116 506.013,655.783 508.5,649.5C 509.689,648.571 511.022,648.238 512.5,648.5 Z"/></g>
<g><path style="opacity:1" fill="#d4d4e2" d="M 231.5,648.5 C 246.297,647.573 250.963,654.073 245.5,668C 239.321,671.546 233.488,671.046 228,666.5C 225.18,659.628 226.347,653.628 231.5,648.5 Z"/></g>
<g><path style="opacity:1" fill="#454480" d="M 237.5,651.5 C 242.047,652.402 244.047,655.235 243.5,660C 243.426,666.718 240.093,669.051 233.5,667C 230.085,662.936 229.585,658.436 232,653.5C 233.948,652.891 235.782,652.224 237.5,651.5 Z"/></g>
<g><path style="opacity:1" fill="#d6d6e3" d="M 592.5,650.5 C 593.833,650.5 595.167,650.5 596.5,650.5C 596.5,655.167 596.5,659.833 596.5,664.5C 595.167,664.5 593.833,664.5 592.5,664.5C 592.5,659.833 592.5,655.167 592.5,650.5 Z"/></g>
<g><path style="opacity:1" fill="#d9d8e5" d="M 456.5,648.5 C 461.167,648.5 465.833,648.5 470.5,648.5C 470.5,649.5 470.5,650.5 470.5,651.5C 467.167,651.5 463.833,651.5 460.5,651.5C 460.201,653.604 460.534,655.604 461.5,657.5C 463.747,656.626 466.08,656.292 468.5,656.5C 468.5,657.833 468.5,659.167 468.5,660.5C 465.833,660.5 463.167,660.5 460.5,660.5C 460.5,662.5 460.5,664.5 460.5,666.5C 464.167,666.5 467.833,666.5 471.5,666.5C 471.5,667.833 471.5,669.167 471.5,670.5C 466.57,670.803 461.737,670.469 457,669.5C 456.5,662.508 456.334,655.508 456.5,648.5 Z"/></g>
<g><path style="opacity:1" fill="#4a4984" d="M 510.5,656.5 C 512.104,657.287 512.771,658.62 512.5,660.5C 511.325,660.719 510.325,660.386 509.5,659.5C 510.127,658.583 510.461,657.583 510.5,656.5 Z"/></g>
<g><path style="opacity:1" fill="#ccccdc" d="M 480.5,648.5 C 481.833,648.5 483.167,648.5 484.5,648.5C 484.5,651.167 484.5,653.833 484.5,656.5C 488.167,656.5 491.833,656.5 495.5,656.5C 495.5,653.833 495.5,651.167 495.5,648.5C 496.833,648.5 498.167,648.5 499.5,648.5C 500.089,655.485 500.422,662.485 500.5,669.5C 498.833,669.5 497.167,669.5 495.5,669.5C 495.5,666.5 495.5,663.5 495.5,660.5C 491.833,660.5 488.167,660.5 484.5,660.5C 484.5,663.833 484.5,667.167 484.5,670.5C 483.178,670.67 482.011,670.337 481,669.5C 480.5,662.508 480.334,655.508 480.5,648.5 Z"/></g>
<g><path style="opacity:1" fill="#d5d5e2" d="M 566.5,648.5 C 567.833,648.5 569.167,648.5 570.5,648.5C 570.5,655.833 570.5,663.167 570.5,670.5C 569.167,670.5 567.833,670.5 566.5,670.5C 566.5,663.167 566.5,655.833 566.5,648.5 Z"/></g>
<g><path style="opacity:1" fill="#d8d8e5" d="M 368.5,649.5 C 372.525,653.35 372.192,657.183 367.5,661C 369.533,663.896 370.866,667.063 371.5,670.5C 370.325,670.719 369.325,670.386 368.5,669.5C 366.957,666.914 365.291,664.414 363.5,662C 362.552,661.517 361.552,661.351 360.5,661.5C 360.664,664.187 360.497,666.854 360,669.5C 358.989,670.337 357.822,670.67 356.5,670.5C 356.5,664.167 356.5,657.833 356.5,651.5C 357.833,652.833 359.167,652.833 360.5,651.5C 360.337,653.857 360.503,656.19 361,658.5C 362.699,657.594 364.533,657.261 366.5,657.5C 366.675,655.379 366.341,653.379 365.5,651.5C 364.682,650.591 363.016,650.091 360.5,650C 363.146,649.503 365.813,649.336 368.5,649.5 Z"/></g>
<g><path style="opacity:1" fill="#3f3f7d" d="M 360.5,651.5 C 362.167,651.5 363.833,651.5 365.5,651.5C 366.341,653.379 366.675,655.379 366.5,657.5C 364.533,657.261 362.699,657.594 361,658.5C 360.503,656.19 360.337,653.857 360.5,651.5 Z"/></g>
<g><path style="opacity:1" fill="#ececf2" d="M 255.5,648.5 C 255.833,649.167 256.167,649.833 256.5,650.5C 256.565,650.938 256.399,651.272 256,651.5C 253.591,648.833 252.424,648.999 252.5,652C 254.116,652.615 255.449,653.615 256.5,655C 256.272,655.399 255.938,655.565 255.5,655.5C 254.514,659.97 254.181,664.637 254.5,669.5C 251.402,669.587 251.068,669.087 253.5,668C 251.109,667.309 251.109,666.309 253.5,665C 251.58,659.803 250.913,654.303 251.5,648.5C 252.833,648.5 254.167,648.5 255.5,648.5 Z"/></g>
<g><path style="opacity:1" fill="#cfcfdf" d="M 519.5,648.5 C 520.833,648.5 522.167,648.5 523.5,648.5C 525.286,653.851 527.286,659.185 529.5,664.5C 531.626,659.625 533.459,654.625 535,649.5C 536.356,648.62 537.856,648.286 539.5,648.5C 537.96,655.455 535.626,662.122 532.5,668.5C 530.647,669.76 528.814,669.76 527,668.5C 524.438,661.85 521.938,655.183 519.5,648.5 Z"/></g>
<g><path style="opacity:1" fill="#bfbfd4" d="M 255.5,648.5 C 254.167,648.5 252.833,648.5 251.5,648.5C 250.913,654.303 251.58,659.803 253.5,665C 251.109,666.309 251.109,667.309 253.5,668C 251.068,669.087 251.402,669.587 254.5,669.5C 253.432,670.434 252.099,670.768 250.5,670.5C 250.5,662.833 250.5,655.167 250.5,647.5C 252.415,647.216 254.081,647.549 255.5,648.5 Z"/></g>
<g><path style="opacity:1" fill="#d2d2e0" d="M 301.5,648.5 C 302.978,648.238 304.311,648.571 305.5,649.5C 306.715,653.979 308.215,658.312 310,662.5C 311.171,657.814 312.338,653.148 313.5,648.5C 315.167,648.5 316.833,648.5 318.5,648.5C 319.698,653.238 321.198,657.905 323,662.5C 324.251,657.907 325.085,653.241 325.5,648.5C 327.199,648.34 328.866,648.506 330.5,649C 329.229,655.919 327.562,662.752 325.5,669.5C 323.712,669.785 322.045,669.452 320.5,668.5C 319.099,663.797 317.599,659.13 316,654.5C 315.07,659.29 313.736,663.956 312,668.5C 310.612,669.554 309.112,669.72 307.5,669C 304.957,662.328 302.957,655.495 301.5,648.5 Z"/></g>
<g><path style="opacity:1" fill="#9393b6" d="M 255.5,655.5 C 255.833,656.167 256.167,656.833 256.5,657.5C 255.833,661.5 255.167,665.5 254.5,669.5C 254.181,664.637 254.514,659.97 255.5,655.5 Z"/></g>
<g><path style="opacity:1" fill="#d9d9e5" d="M 337.5,648.5 C 351.848,648.043 356.181,654.543 350.5,668C 344.909,671.346 339.409,671.179 334,667.5C 329.727,659.937 330.893,653.603 337.5,648.5 Z"/></g>
<g><path style="opacity:1" fill="#41417e" d="M 342.5,651.5 C 346.906,652.448 348.906,655.282 348.5,660C 348.129,667.105 344.629,669.272 338,666.5C 335.705,663.168 335.039,659.501 336,655.5C 337.792,653.372 339.958,652.039 342.5,651.5 Z"/></g>
<g><path style="opacity:1" fill="#e0e0ea" d="M 391.5,648.5 C 392.978,648.238 394.311,648.571 395.5,649.5C 396.701,651.909 398.367,653.909 400.5,655.5C 402.276,653.462 403.943,651.296 405.5,649C 406.833,648.333 408.167,648.333 409.5,649C 406.963,651.906 404.796,655.073 403,658.5C 402.501,662.152 402.335,665.818 402.5,669.5C 401.167,669.5 399.833,669.5 398.5,669.5C 400.128,662.039 397.961,656.039 392,651.5C 391.517,650.552 391.351,649.552 391.5,648.5 Z"/></g>
<g><path style="opacity:1" fill="#cecede" d="M 424.5,648.5 C 426.167,648.5 427.833,648.5 429.5,648.5C 430.025,653.076 431.359,657.41 433.5,661.5C 434.975,657.602 436.142,653.602 437,649.5C 438.699,648.594 440.533,648.261 442.5,648.5C 443.303,653.076 444.803,657.41 447,661.5C 447.774,657.853 448.441,654.186 449,650.5C 450.049,648.893 451.549,648.227 453.5,648.5C 453.664,651.187 453.497,653.854 453,656.5C 451.32,660.705 450.153,665.038 449.5,669.5C 447.712,669.785 446.045,669.452 444.5,668.5C 442.541,664.331 441.041,659.998 440,655.5C 438.187,660.091 436.687,664.758 435.5,669.5C 433.712,669.785 432.045,669.452 430.5,668.5C 428.186,661.907 426.186,655.241 424.5,648.5 Z"/></g>
<g><path style="opacity:1" fill="#d7d7e4" d="M 256.5,657.5 C 256.167,656.833 255.833,656.167 255.5,655.5C 255.938,655.565 256.272,655.399 256.5,655C 255.449,653.615 254.116,652.615 252.5,652C 252.424,648.999 253.591,648.833 256,651.5C 256.399,651.272 256.565,650.938 256.5,650.5C 258.539,654.377 261.039,658.043 264,661.5C 264.499,657.179 264.666,652.846 264.5,648.5C 265.833,648.5 267.167,648.5 268.5,648.5C 268.5,655.833 268.5,663.167 268.5,670.5C 266.61,670.703 265.11,670.037 264,668.5C 260.995,665.151 258.495,661.484 256.5,657.5 Z"/></g>
<g><path style="opacity:1" fill="#b9b9d0" d="M 512.5,648.5 C 515.669,654.857 518.336,661.524 520.5,668.5C 520.005,670.711 518.838,671.045 517,669.5C 515.405,668.644 514.572,667.311 514.5,665.5C 515.65,661.6 514.817,657.6 512,653.5C 510.442,652.655 509.442,653.321 509,655.5C 508.82,653.512 508.986,651.512 509.5,649.5C 510.791,649.737 511.791,649.404 512.5,648.5 Z"/></g>
<g><path style="opacity:1" fill="#e6e6ee" d="M 542.5,648.5 C 547.167,648.5 551.833,648.5 556.5,648.5C 556.5,649.5 556.5,650.5 556.5,651.5C 553.167,651.5 549.833,651.5 546.5,651.5C 546.5,653.5 546.5,655.5 546.5,657.5C 548.819,656.833 551.153,656.666 553.5,657C 554.337,658.011 554.67,659.178 554.5,660.5C 551.5,660.5 548.5,660.5 545.5,660.5C 545.5,662.5 545.5,664.5 545.5,666.5C 549.167,666.5 552.833,666.5 556.5,666.5C 556.5,667.833 556.5,669.167 556.5,670.5C 551.87,669.771 547.203,669.437 542.5,669.5C 542.5,662.5 542.5,655.5 542.5,648.5 Z"/></g>
<g><path style="opacity:1" fill="#dbdbe7" d="M 593.5,666.5 C 597.31,667.754 597.31,668.754 593.5,669.5C 593.5,668.5 593.5,667.5 593.5,666.5 Z"/></g>
<g><path style="opacity:1" fill="#ccccdc" d="M 412.5,666.5 C 413.5,666.5 414.5,666.5 415.5,666.5C 415.868,669.056 415.034,671.056 413,672.5C 412.5,672.167 412,671.833 411.5,671.5C 411.579,669.872 411.912,668.205 412.5,666.5 Z"/></g>
</svg>
